<?xml version="1.0" encoding="UTF-8" standalone="no"?>
<svg
   enable-background="new 0 0 128 128"
   height="168"
   id="Layer_1"
   version="1.1"
   viewBox="0 0 168 168"
   width="168"
   xml:space="preserve"
   sodipodi:docname="728933_document_edit_file_page_paper_icon_with_bg.svg"
   inkscape:version="1.4.2 (ebf0e940, 2025-05-08)"
   xmlns:inkscape="http://www.inkscape.org/namespaces/inkscape"
   xmlns:sodipodi="http://sodipodi.sourceforge.net/DTD/sodipodi-0.dtd"
   xmlns:xlink="http://www.w3.org/1999/xlink"
   xmlns="http://www.w3.org/2000/svg"
   xmlns:svg="http://www.w3.org/2000/svg"><defs
     id="defs6"><linearGradient
       id="linearGradient8"
       inkscape:collect="always"><stop
         style="stop-color:#d0d0d0;stop-opacity:1;"
         offset="0"
         id="stop8" /><stop
         style="stop-color:#ffffff;stop-opacity:1;"
         offset="1"
         id="stop9" /></linearGradient><linearGradient
       inkscape:collect="always"
       xlink:href="#linearGradient8"
       id="linearGradient9"
       x1="85.233734"
       y1="205.56371"
       x2="90.247467"
       y2="89.41185"
       gradientUnits="userSpaceOnUse"
       gradientTransform="matrix(0.99450518,0,0,0.99450518,0.87937714,0.87937714)" /></defs><sodipodi:namedview
     id="namedview6"
     pagecolor="#ffffff"
     bordercolor="#000000"
     borderopacity="0.25"
     inkscape:showpageshadow="2"
     inkscape:pageopacity="0.0"
     inkscape:pagecheckerboard="0"
     inkscape:deskcolor="#d1d1d1"
     inkscape:zoom="1.1967094"
     inkscape:cx="162.94683"
     inkscape:cy="133.69996"
     inkscape:window-width="1472"
     inkscape:window-height="891"
     inkscape:window-x="0"
     inkscape:window-y="37"
     inkscape:window-maximized="1"
     inkscape:current-layer="Layer_1" /><rect
     style="display:inline;fill:url(#linearGradient9);fill-opacity:1;stroke:none;stroke-width:0;stroke-linejoin:round;stroke-dasharray:none;stroke-opacity:1"
     id="rect7"
     width="167.07687"
     height="167.07687"
     x="0.87937683"
     y="0.87937683"
     rx="27.846146"
     ry="27.846146" /><g
     id="g7"
     transform="matrix(1.1050058,0,0,1.1050058,18.117468,13.697444)"
     style="display:inline"><path
       d="M 125.656,72 120,66.344 C 118.437,64.781 116.391,64 114.344,64 c -2.047,0 -4.094,0.781 -5.656,2.344 l -34.344,34.344 c -1.563,1.563 -6.342,7.605 -6.344,9.652 L 64,128 81.656,124 c 0,0 8.094,-4.781 9.656,-6.344 l 34.344,-34.344 c 3.125,-3.124 3.125,-8.191 0,-11.312 z m -37.164,42.82 c -0.453,0.43 -2.02,1.488 -3.934,2.707 L 74.195,107.164 c 1.063,-1.457 2.246,-2.922 2.977,-3.648 l 25.859,-25.859 11.313,11.313 z"
       fill="#0058dc"
       id="path2" /><path
       clip-rule="evenodd"
       d="M 96,0 H 16 C 7.164,0 0,7.164 0,16 v 96 c 0,8.836 7.164,16 16,16 h 44 v -8 H 16 c -4.406,0 -8,-3.586 -8,-8 V 16 c 0,-4.414 3.594,-8 8,-8 h 80 c 4.414,0 8,3.586 8,8 v 47.031 l 8,-8 V 16 C 112,7.164 104.836,0 96,0 Z"
       fill="#546e7a"
       fill-rule="evenodd"
       id="path1"
       style="display:inline" /><path
       d="M 88,32 H 24 v -8 h 64 z"
       fill="#b0bec5"
       id="path3" /><path
       d="M 88,48 H 24 v -8 h 64 z"
       fill="#b0bec5"
       id="path4" /><path
       d="M 88,64 H 24 v -8 h 64 z"
       fill="#b0bec5"
       id="path5" /><path
       d="M 56,80 H 24 v -8 h 32 z"
       fill="#b0bec5"
       id="path6" /></g></svg>
