<svg xmlns="http://www.w3.org/2000/svg" viewBox="0 0 64 80" x="0px" y="0px"><g><path d="M52.249,18.876l.794.9-2.45,9.142,1.931.518,2.589-9.659a1,1,0,0,0-.215-.919l-2.027-2.307.379-1.414h0l1.036-3.865a3,3,0,0,0-5.8-1.552L48,11.552V11h-.009a.991.991,0,0,0-.284-.707l-8-8A.99.99,0,0,0,39,2.01V2H5A1,1,0,0,0,4,3V61a1,1,0,0,0,1,1H47a1,1,0,0,0,1-1V35h-.072ZM49.128,15.07l1.932.517-9,33.58L40.579,50.84l-.448-2.191Zm1.294-4.829a1,1,0,1,1,1.932.517l-.777,2.9-1.931-.518ZM40,5.414,44.586,10H40ZM46,60H6V4H38v7a1,1,0,0,0,1,1h7v7h.005L39.842,42H12v2H39.306l-.268,1H12v2H38.5l-.268,1H12v2H38.366l.655,3.2a1,1,0,0,0,1.727.463l2.967-3.347a1,1,0,0,0,.218-.4L46,42.2Z"/><path d="M43.339,53.25c-1.562,1.377-2.968,1.974-4.17,1.764a4,4,0,0,1-2.033-1.233,6.512,6.512,0,0,0-2.9-1.752c-2.012-.5-4.314.234-6.849,2.178l1.216,1.586c2.028-1.554,3.764-2.167,5.151-1.822a4.69,4.69,0,0,1,2.034,1.292,5.848,5.848,0,0,0,3.038,1.723c.055.009.112.006.168.014H32v2H44V57H40.354a8.466,8.466,0,0,0,4.307-2.25Z"/><path d="M26,14a4,4,0,1,0-4-4A4,4,0,0,0,26,14Zm0-6a2,2,0,1,1-2,2A2,2,0,0,1,26,8Z"/><rect x="19" y="15" width="14" height="2"/><rect x="12" y="20" width="28" height="2"/><rect x="12" y="23" width="28" height="2"/><polygon points="59 9 59 7 57 7 57 9 55 9 55 11 57 11 57 13 59 13 59 11 61 11 61 9 59 9"/><polygon points="47 8 49 8 49 6 51 6 51 4 49 4 49 2 47 2 47 4 45 4 45 6 47 6 47 8"/><polygon points="59 27 57 27 57 29 55 29 55 31 57 31 57 33 59 33 59 31 61 31 61 29 59 29 59 27"/><polygon points="54 34 52 34 52 36 50 36 50 38 52 38 52 40 54 40 54 38 56 38 56 36 54 36 54 34"/><rect x="12" y="26" width="28" height="2"/><rect x="12" y="29" width="28" height="2"/><rect x="12" y="32" width="28" height="2"/><rect x="12" y="39" width="28" height="2"/><rect x="7" y="5" width="4" height="2"/><rect x="12" y="5" width="4" height="2"/></g><text x="0" y="79" fill="#000000" font-size="5px" font-weight="bold" font-family="'Helvetica Neue', Helvetica, Arial-Unicode, Arial, Sans-serif">Created by Phonlaphat Thongsriphong</text><text x="0" y="84" fill="#000000" font-size="5px" font-weight="bold" font-family="'Helvetica Neue', Helvetica, Arial-Unicode, Arial, Sans-serif">from the Noun Project</text></svg>